<svg xmlns="http://www.w3.org/2000/svg" data-name="Layer 2" viewBox="0 0 55 65" x="0px" y="0px" ><title>Leader </title><path d="M33.71,58.69H4.08a1,1,0,0,1-1-1V42.88A15.84,15.84,0,0,1,18.9,27.06H46.73a1,1,0,0,1,1,1V38.42a1,1,0,0,1-1,1H34.88L34.71,57.7A1,1,0,0,1,33.71,58.69Zm-28.63-2H32.72l.17-18.27a1,1,0,0,1,1-1H45.73V29.06H18.9A13.84,13.84,0,0,0,5.08,42.88Z"/><path d="M23.66,24.44a9.57,9.57,0,1,1,9.57-9.57A9.58,9.58,0,0,1,23.66,24.44Zm0-17.13a7.57,7.57,0,1,0,7.57,7.56A7.57,7.57,0,0,0,23.66,7.31Z"/><path d="M14.61,58.69a1,1,0,0,1-1-1V40.56a1,1,0,0,1,2,0V57.69A1,1,0,0,1,14.61,58.69Z"/><path d="M46.73,58.69a1,1,0,0,1-1-1V8.45a1,1,0,1,1,2,0V57.69A1,1,0,0,1,46.73,58.69Z"/><path d="M60,24.44H46.73a1,1,0,0,1-1-1V10.59a1,1,0,0,1,1.7-.72L60.7,22.72a1,1,0,0,1-.7,1.72Zm-12.27-2h9.8L47.73,13Z"/></svg>