<svg xmlns="http://www.w3.org/2000/svg" xmlns:xlink="http://www.w3.org/1999/xlink" version="1.1" x="0px" y="0px" viewBox="0 0 65 65" style="enable-background:new 0 0 60 60;" xml:space="preserve"><g><path d="M7,43c-0.256,0-0.512-0.098-0.707-0.293c-0.391-0.391-0.391-1.023,0-1.414l2-2c0.39-0.391,1.024-0.391,1.414,0   c0.391,0.391,0.391,1.023,0,1.414l-2,2C7.512,42.902,7.256,43,7,43z"/><path d="M7,31c-0.256,0-0.512-0.098-0.707-0.293c-0.391-0.391-0.391-1.023,0-1.414l2-2c0.39-0.391,1.024-0.391,1.414,0   c0.391,0.391,0.391,1.023,0,1.414l-2,2C7.512,30.902,7.256,31,7,31z"/><path d="M7,48c-0.256,0-0.512-0.098-0.707-0.293l-2-2c-0.391-0.391-0.391-1.023,0-1.414c0.39-0.391,1.024-0.391,1.414,0l2,2   c0.391,0.391,0.391,1.023,0,1.414C7.512,47.902,7.256,48,7,48z"/><path d="M7,60c-0.552,0-1-0.447-1-1V22c0-0.553,0.448-1,1-1s1,0.447,1,1v37C8,59.553,7.552,60,7,60z"/><path d="M7,52c-3.86,0-7-3.141-7-7V22c0-3.859,3.14-7,7-7s7,3.141,7,7v23C14,48.859,10.86,52,7,52z M7,17c-2.757,0-5,2.243-5,5v23   c0,2.757,2.243,5,5,5s5-2.243,5-5V22C12,19.243,9.757,17,7,17z"/><path d="M7,36c-0.256,0-0.512-0.098-0.707-0.293l-2-2c-0.391-0.391-0.391-1.023,0-1.414c0.39-0.391,1.024-0.391,1.414,0l2,2   c0.391,0.391,0.391,1.023,0,1.414C7.512,35.902,7.256,36,7,36z"/><path d="M50,28c-0.256,0-0.512-0.098-0.707-0.293c-0.391-0.391-0.391-1.023,0-1.414l2-2c0.39-0.391,1.024-0.391,1.414,0   c0.391,0.391,0.391,1.023,0,1.414l-2,2C50.512,27.902,50.256,28,50,28z"/><path d="M50,16c-0.256,0-0.512-0.098-0.707-0.293c-0.391-0.391-0.391-1.023,0-1.414l2-2c0.39-0.391,1.024-0.391,1.414,0   c0.391,0.391,0.391,1.023,0,1.414l-2,2C50.512,15.902,50.256,16,50,16z"/><path d="M50,33c-0.256,0-0.512-0.098-0.707-0.293l-2-2c-0.391-0.391-0.391-1.023,0-1.414c0.39-0.391,1.024-0.391,1.414,0l2,2   c0.391,0.391,0.391,1.023,0,1.414C50.512,32.902,50.256,33,50,33z"/><path d="M50,45.75c-0.552,0-1-0.447-1-1V7c0-0.553,0.448-1,1-1s1,0.447,1,1v37.75C51,45.303,50.552,45.75,50,45.75z"/><path d="M50,37c-3.86,0-7-3.141-7-7V7c0-3.859,3.14-7,7-7s7,3.141,7,7v23C57,33.859,53.86,37,50,37z M50,2c-2.757,0-5,2.243-5,5v23   c0,2.757,2.243,5,5,5s5-2.243,5-5V7C55,4.243,52.757,2,50,2z"/><path d="M50,21c-0.256,0-0.512-0.098-0.707-0.293l-2-2c-0.391-0.391-0.391-1.023,0-1.414c0.39-0.391,1.024-0.391,1.414,0l2,2   c0.391,0.391,0.391,1.023,0,1.414C50.512,20.902,50.256,21,50,21z"/><path d="M32,60H12c-0.35,0-0.675-0.184-0.856-0.483c-0.181-0.3-0.192-0.673-0.029-0.982l10-19c0.346-0.656,1.424-0.656,1.77,0   l10,19c0.163,0.31,0.152,0.683-0.029,0.982C32.675,59.816,32.35,60,32,60z M13.656,58h16.688L22,42.147L13.656,58z"/><path d="M59,60H32c-0.371,0-0.712-0.206-0.885-0.534l-10-19c-0.163-0.31-0.152-0.683,0.029-0.982C21.325,39.184,21.65,39,22,39h25   c0.343,0,0.662,0.176,0.845,0.466l12,19c0.195,0.309,0.206,0.698,0.03,1.017C59.7,59.802,59.364,60,59,60z M32.604,58h24.582   L46.449,41H23.656L32.604,58z"/><path d="M22,60c-0.552,0-1-0.447-1-1V40c0-0.553,0.448-1,1-1s1,0.447,1,1v19C23,59.553,22.552,60,22,60z"/><path d="M51,56H36c-0.366,0-0.703-0.2-0.878-0.521l-6-11c-0.169-0.31-0.162-0.686,0.018-0.989C29.32,43.187,29.647,43,30,43h14   c0.342,0,0.66,0.175,0.844,0.463l7,11c0.196,0.309,0.208,0.698,0.033,1.019C51.701,55.801,51.365,56,51,56z M36.594,54h12.584   l-5.727-9H31.685L36.594,54z"/><path d="M22,31c-0.552,0-1-0.447-1-1c0-1.103-0.897-2-2-2c-0.552,0-1-0.447-1-1s0.448-1,1-1c1.064,0,2.032,0.418,2.75,1.098   C22.774,25.252,24.744,24,27,24c0.552,0,1,0.447,1,1s-0.448,1-1,1c-2.206,0-4,1.794-4,4C23,30.553,22.552,31,22,31z"/><path d="M36,18H26c-2.206,0-4-1.794-4-4c0-2.343,2.069-4.233,4.409-3.978C27.185,8.224,28.979,7,31,7s3.815,1.224,4.591,3.022   C37.928,9.77,40,11.657,40,14C40,16.206,38.206,18,36,18z M26,12c-1.103,0-2,0.897-2,2s0.897,2,2,2h10c1.103,0,2-0.897,2-2   c0-1.338-1.355-2.385-2.717-1.859c-0.275,0.109-0.584,0.089-0.843-0.055c-0.259-0.142-0.442-0.391-0.5-0.68   C33.66,10.012,32.424,9,31,9s-2.66,1.012-2.94,2.406c-0.058,0.289-0.241,0.538-0.5,0.68c-0.259,0.143-0.567,0.163-0.843,0.055   C26.477,12.048,26.236,12,26,12z"/><path d="M13,14c-3.617,0-6.611-2.712-6.965-6.309C6,7.34,6.154,6.995,6.44,6.787c0.286-0.209,0.66-0.252,0.985-0.112   C7.927,6.891,8.457,7,9,7c2.206,0,4-1.794,4-4c0-0.544-0.109-1.074-0.324-1.575c-0.14-0.324-0.097-0.699,0.112-0.984   c0.208-0.286,0.552-0.437,0.905-0.405C17.288,0.388,20,3.382,20,7C20,10.859,16.86,14,13,14z M8.4,8.97   C9.164,10.77,10.941,12,13,12c2.757,0,5-2.243,5-5c0-2.06-1.23-3.837-3.03-4.601C14.99,2.599,15,2.799,15,3c0,3.309-2.692,6-6,6   C8.799,9,8.598,8.99,8.4,8.97z"/></g></svg>